<svg width="44" height="44" viewBox="0 0 44 44" fill="none" xmlns="http://www.w3.org/2000/svg">
<path fill-rule="evenodd" clip-rule="evenodd" d="M21.9991 8.50651C29.0493 3.73717 35.7675 2.20066 38.7833 5.21647L38.9679 5.41178C41.7327 8.51548 40.1611 15.0984 35.4923 21.9997C40.2617 29.0498 41.7988 35.7679 38.7833 38.7839L38.587 38.9684C35.4832 41.733 28.9004 40.1617 21.9991 35.4928C14.9495 40.2617 8.23179 41.7982 5.21592 38.7829C2.20067 35.7669 3.73685 29.0486 8.50596 21.9987C3.73773 14.9496 2.20109 8.23328 5.21592 5.21745C8.23159 2.20179 14.9493 3.73775 21.9991 8.50651ZM32.5538 25.8893C31.8214 26.7639 31.0437 27.6345 30.2218 28.4938L29.3683 29.3678C28.2271 30.509 27.0613 31.5724 25.8888 32.5544C27.4494 33.5161 28.9457 34.271 30.3214 34.8073C32.1539 35.5217 33.5644 35.7682 34.5108 35.7506C34.9663 35.7421 35.2442 35.6734 35.3888 35.6208C35.4587 35.5953 35.4979 35.5733 35.5157 35.5622C35.5316 35.5523 35.5389 35.5467 35.5421 35.5436C35.545 35.5407 35.5521 35.5331 35.5626 35.5163C35.5738 35.4983 35.5949 35.4589 35.6202 35.3893C35.6729 35.2448 35.7416 34.9669 35.7501 34.5114C35.7677 33.565 35.5211 32.1544 34.8067 30.3219C34.2704 28.9463 33.5156 27.45 32.5538 25.8893ZM11.4435 25.8893C10.4818 27.4498 9.72772 28.9465 9.19151 30.3219C8.4773 32.1542 8.23156 33.5641 8.24913 34.5104C8.25763 34.9659 8.32637 35.2437 8.37901 35.3883C8.40426 35.4577 8.42542 35.4972 8.43663 35.5153C8.44715 35.5321 8.45422 35.5397 8.45713 35.5426C8.46023 35.5457 8.46736 35.5521 8.4835 35.5622C8.50145 35.5733 8.54085 35.5944 8.61046 35.6198C8.75501 35.6724 9.03284 35.7411 9.48838 35.7497C10.4347 35.7673 11.8446 35.5215 13.6769 34.8073C15.0524 34.2711 16.5479 33.5151 18.1085 32.5534C17.2344 31.8213 16.3639 31.0438 15.505 30.2223L14.6319 29.3688C13.4905 28.2274 12.4256 27.0621 11.4435 25.8893ZM21.9991 14.1862C20.6252 15.2757 19.2379 16.506 17.8722 17.8717C16.5064 19.2375 15.2753 20.6247 14.1857 21.9987C15.2755 23.3732 16.5059 24.7614 17.8722 26.1276C19.2377 27.4931 20.6254 28.7228 21.9991 29.8122C23.3731 28.7226 24.7613 27.4933 26.1271 26.1276C27.4931 24.7616 28.7229 23.3729 29.8126 21.9987C28.7232 20.625 27.4925 19.2382 26.1271 17.8727C24.761 16.5067 23.3734 15.276 21.9991 14.1862ZM9.48936 8.24967C9.03358 8.25817 8.75504 8.3269 8.61046 8.37956C8.54066 8.40499 8.50135 8.42703 8.4835 8.43815C8.46733 8.44827 8.46019 8.45466 8.45713 8.45768C8.4541 8.46074 8.44772 8.46785 8.4376 8.48405C8.42649 8.50188 8.40448 8.54107 8.37901 8.611C8.32636 8.7556 8.25762 9.03417 8.24913 9.48991C8.23164 10.4363 8.47839 11.8455 9.19249 13.6774C9.72862 15.0527 10.4829 16.5488 11.4444 18.109C12.4261 16.9369 13.4901 15.7724 14.631 14.6315L15.505 13.777C16.3642 12.9552 17.234 12.1764 18.1085 11.444C16.5484 10.4827 15.052 9.72813 13.6769 9.19206C11.845 8.47804 10.4356 8.23216 9.48936 8.24967ZM34.5099 8.24967C33.5635 8.23216 32.1536 8.47782 30.3214 9.19206C28.946 9.72826 27.4501 10.4835 25.8898 11.445C27.0621 12.4268 28.2272 13.4905 29.3683 14.6315L30.2228 15.5055C31.0441 16.3643 31.8218 17.2341 32.5538 18.1081C33.5151 16.548 34.2706 15.0526 34.8067 13.6774C35.521 11.8451 35.7677 10.4353 35.7501 9.48893C35.7416 9.03315 35.6729 8.75461 35.6202 8.61003C35.5948 8.54022 35.5727 8.50087 35.5616 8.48307C35.5516 8.46703 35.5451 8.45975 35.5421 8.45671C35.5389 8.45361 35.5317 8.44717 35.5157 8.43717C35.4979 8.42605 35.4587 8.40404 35.3888 8.37858C35.2442 8.32593 34.9657 8.25817 34.5099 8.24967Z" fill="#FD6F47"/>
</svg>
