<svg width="44" height="44" viewBox="0 0 44 44" fill="none" xmlns="http://www.w3.org/2000/svg">
<path d="M22.5098 3.66675C22.6624 3.66675 22.8141 3.67561 22.9648 3.69214C32.6413 4.19386 40.3336 12.1985 40.334 21.9998L40.3281 22.4734C40.0852 32.0582 32.4854 39.8147 22.9648 40.3083C22.8141 40.3249 22.6624 40.3337 22.5098 40.3337L22.3633 40.3298C22.2425 40.3322 22.1214 40.3337 22 40.3337L21.5273 40.3279C11.6207 40.077 3.66699 31.9668 3.66699 21.9998C3.66741 11.875 11.8752 3.66692 22 3.66675C22.1155 3.66675 22.2307 3.6695 22.3457 3.67163C22.4003 3.66948 22.4549 3.66675 22.5098 3.66675ZM18.5127 24.2927C18.7506 27.8449 19.5247 30.8727 20.5322 33.0066C21.4752 35.0034 22.2465 35.5506 22.5098 35.698C22.7727 35.5509 23.544 35.0041 24.4873 33.0066C25.4949 30.8727 26.269 27.8449 26.5068 24.2927H18.5127ZM8.44141 24.2927C9.19813 28.8009 12.1482 32.564 16.1572 34.449C14.9592 31.7076 14.1515 28.1906 13.9219 24.2927H8.44141ZM31.0967 24.2927C30.8864 27.8629 30.1932 31.114 29.1572 33.7419C32.4896 31.7064 34.8872 28.2926 35.5586 24.2927H31.0967ZM16.1562 9.55054C12.1473 11.4357 9.19791 15.2003 8.44141 19.7087H13.9219C14.1515 15.8101 14.9579 12.2921 16.1562 9.55054ZM22.5098 8.30151C22.247 8.44849 21.4756 8.99621 20.5322 10.9939C19.5246 13.1279 18.7506 16.1563 18.5127 19.7087H26.5068C26.269 16.1563 25.495 13.1279 24.4873 10.9939C23.5436 8.9955 22.7723 8.44826 22.5098 8.30151ZM29.1572 10.2576C30.1935 12.8858 30.8874 16.1377 31.0977 19.7087H35.5586C34.8874 15.7083 32.49 12.2933 29.1572 10.2576Z" fill="#FD6F47"/>
</svg>
