<svg width="44" height="44" viewBox="0 0 44 44" fill="none" xmlns="http://www.w3.org/2000/svg">
<path d="M24.1611 6.71582C31.1142 7.51097 36.6581 12.9404 37.6279 19.8389H40.334V24.1602H37.6279C36.6584 31.0589 31.1144 36.488 24.1611 37.2832V40.333H19.8398V37.1729C13.2589 36.0729 8.09286 30.7963 7.16016 24.1602H3.66699V19.8389H7.16113C8.09401 13.203 13.259 7.92701 19.8398 6.82715V3.66699H24.1611V6.71582ZM24.1611 13.0371H19.8398V11.5039C15.796 12.4847 12.6411 15.7391 11.8086 19.8389H13.0371V24.1602H11.8086C12.641 28.26 15.796 31.5141 19.8398 32.4951V30.9629H24.1611V32.6553C28.5791 31.928 32.0947 28.5227 32.9805 24.1602H30.9639V19.8389H32.9805C32.0946 15.4765 28.5791 12.0709 24.1611 11.3438V13.0371ZM24.54 24.1338H19.957V19.5508H24.54V24.1338Z" fill="#FD6F47"/>
</svg>
