<svg width="44" height="44" viewBox="0 0 44 44" fill="none" xmlns="http://www.w3.org/2000/svg">
<path d="M22.082 4.01514C27.393 4.01514 31.699 8.32043 31.6992 13.6313L31.6865 14.1265C31.5557 16.7075 30.4058 19.0185 28.6328 20.6694H29.4482C32.8381 20.6695 35.5857 23.4183 35.5859 26.8081V39.9849H31.0029V26.8081C31.0027 25.9496 30.3068 25.2535 29.4482 25.2534H14.5527C13.6943 25.2536 12.9983 25.9497 12.998 26.8081V39.9849H8.41406V26.8081C8.41431 23.4184 11.163 20.6696 14.5527 20.6694H15.5322C13.6467 18.9136 12.4658 16.4109 12.4658 13.6313C12.466 8.32058 16.7713 4.01538 22.082 4.01514ZM22.082 8.59814C19.3026 8.59839 17.049 10.8519 17.0488 13.6313C17.0488 16.411 19.3025 18.6643 22.082 18.6646C24.8618 18.6646 27.1152 16.4111 27.1152 13.6313C27.115 10.8517 24.8617 8.59814 22.082 8.59814Z" fill="#FD6F47"/>
</svg>
