<svg width="61" height="55" viewBox="0 0 61 55" fill="none" xmlns="http://www.w3.org/2000/svg">
<path d="M24.0645 54.399L0.000139384 54.3322L0.0721156 28.4037C-0.0305131 24.6751 0.487613 21.1742 1.62649 17.9009C2.87835 14.628 4.58102 11.7518 6.73451 9.27221C8.888 6.79265 11.4357 4.76609 14.3775 3.19255C17.4326 1.50634 20.712 0.442142 24.2155 -5.03202e-05L24.1845 11.1848C19.8872 12.6416 16.9437 14.8365 15.3538 17.7696C13.7643 20.5896 12.9637 24.0898 12.9521 28.27L24.137 28.301L24.0645 54.399ZM60.1611 54.4993L36.0967 54.4325L36.1687 28.5039C36.0661 24.7753 36.5842 21.2744 37.7231 18.0011C38.9749 14.7282 40.6776 11.852 42.8311 9.37241C44.9846 6.89285 47.5323 4.86629 50.4741 3.29275C53.5292 1.60654 56.8086 0.542344 60.3121 0.100152L60.2811 11.285C55.9838 12.7418 53.0403 14.9367 51.4504 17.8698C49.8609 20.6899 49.0603 24.19 49.0487 28.3702L60.2336 28.4012L60.1611 54.4993Z" fill="#4657DB"/>
</svg>
